<svg width="188" height="257" viewBox="0 0 188 257" fill="none" xmlns="http://www.w3.org/2000/svg">
<rect width="187.2" height="256.8" fill="#F9F9F9" fill-opacity="0.8"/>
<rect x="0.2" y="0.2" width="186.8" height="256.4" stroke="#030303" stroke-opacity="0.1" stroke-width="0.4"/>
<path d="M25.0061 37.2146H21.3217V36.7365H25.0061V37.2146ZM28.6201 37.2146H24.9357V36.7365H28.6201V37.2146ZM34.3928 37.2146H30.7084V36.7365H34.3928V37.2146ZM38.0068 37.2146H34.3225V36.7365H38.0068V37.2146Z" fill="black"/>
<path d="M21.8561 53.7722H23.1357V54.0487H22.4842C22.4217 54.0487 22.3842 54.055 22.3717 54.0675C22.3623 54.08 22.3576 54.1175 22.3576 54.18V57.6019C22.3576 57.6644 22.3639 57.7065 22.3764 57.7284C22.3889 57.7503 22.4311 57.7612 22.5029 57.7612H23.1357V58.0425H21.8561V53.7722ZM26.9889 58.3378H24.5326V58.019H26.9889V58.3378ZM29.3982 58.3378H26.942V58.019H29.3982V58.3378ZM33.2467 58.3378H30.7904V58.019H33.2467V58.3378ZM35.6561 58.3378H33.1998V58.019H35.6561V58.3378ZM39.5045 58.3378H37.0482V58.019H39.5045V58.3378ZM41.9139 58.3378H39.4576V58.019H41.9139V58.3378ZM44.6514 53.7722V58.0425H43.3717V57.7612H44.0045C44.0764 57.7612 44.1186 57.7503 44.1311 57.7284C44.1436 57.7065 44.1498 57.6644 44.1498 57.6019V54.18C44.1498 54.1175 44.1436 54.08 44.1311 54.0675C44.1217 54.055 44.0857 54.0487 44.0232 54.0487H43.3717V53.7722H44.6514Z" fill="black"/>
<path d="M21.3779 75.0109V74.8094H23.7873V75.0109H21.3779ZM23.7873 75.0109V74.8094H26.1967V75.0109H23.7873ZM26.1967 75.0109V74.8094H28.6061V75.0109H26.1967ZM30.0451 75.0109V74.8094H32.4545V75.0109H30.0451ZM33.8936 75.0109V74.8094H36.3029V75.0109H33.8936ZM36.3029 75.0109V74.8094H38.7123V75.0109H36.3029ZM38.7123 75.0109V74.8094H41.1217V75.0109H38.7123ZM42.5607 75.0109V74.8094H44.9701V75.0109H42.5607ZM44.9701 75.0109V74.8094H47.3795V75.0109H44.9701ZM47.3795 75.0109V74.8094H49.7889V75.0109H47.3795ZM51.2279 75.0109V74.8094H53.6373V75.0109H51.2279ZM53.6373 75.0109V74.8094H56.0467V75.0109H53.6373ZM56.0467 75.0109V74.8094H58.4561V75.0109H56.0467ZM58.4561 75.0109V74.8094H60.8654V75.0109H58.4561ZM60.8654 75.0109V74.8094H63.2748V75.0109H60.8654ZM63.2748 75.0109V74.8094H65.6842V75.0109H63.2748ZM65.6842 75.0109V74.8094H68.0936V75.0109H65.6842ZM68.7123 74.4953C68.6279 74.4953 68.5592 74.4688 68.5061 74.4156C68.4529 74.3625 68.4264 74.2953 68.4264 74.2141C68.4264 74.1359 68.4529 74.0703 68.5061 74.0172C68.5592 73.9609 68.6279 73.9328 68.7123 73.9328C68.7967 73.9328 68.867 73.9609 68.9232 74.0172C68.9795 74.0703 69.0076 74.1359 69.0076 74.2141C69.0076 74.2953 68.9795 74.3625 68.9232 74.4156C68.867 74.4688 68.7967 74.4953 68.7123 74.4953Z" fill="black"/>
<rect width="145.2" height="72.3917" transform="translate(21.2002 135.639)" fill="#E4E4E4"/>
<path d="M22.2123 91.4675C22.2498 91.4581 22.2857 91.4597 22.3201 91.4722C22.3545 91.4816 22.3842 91.4988 22.4092 91.5238C22.4373 91.5488 22.4592 91.5784 22.4748 91.6128C22.4936 91.6472 22.5029 91.6847 22.5029 91.7253C22.5029 91.8034 22.4748 91.8691 22.4186 91.9222C22.3623 91.9722 22.2936 91.9972 22.2123 91.9972C22.1029 91.9972 22.0217 91.9581 21.9686 91.88C21.9154 91.7988 21.8889 91.6956 21.8889 91.5706C21.8889 91.4019 21.9279 91.255 22.0061 91.13C22.0873 91.0019 22.2123 90.9066 22.3811 90.8441L22.4467 90.9331C22.3248 90.9894 22.2342 91.0597 22.1748 91.1441C22.1154 91.2284 22.0857 91.3222 22.0857 91.4253C22.0857 91.4597 22.092 91.48 22.1045 91.4863C22.1201 91.4925 22.1373 91.4925 22.1561 91.4863L22.2123 91.4675ZM22.7654 95.555V95.3534H25.1748V95.555H22.7654ZM25.1748 95.555V95.3534H27.5842V95.555H25.1748ZM27.5842 95.555V95.3534H29.9936V95.555H27.5842ZM29.9936 95.555V95.3534H32.4029V95.555H29.9936ZM32.4029 95.555V95.3534H34.8123V95.555H32.4029ZM34.8123 95.555V95.3534H37.2217V95.555H34.8123ZM37.2217 95.555V95.3534H39.6311V95.555H37.2217ZM39.6311 95.555V95.3534H42.0404V95.555H39.6311ZM42.0404 95.555V95.3534H44.4498V95.555H42.0404ZM44.4498 95.555V95.3534H46.8592V95.555H44.4498ZM46.8592 95.555V95.3534H49.2686V95.555H46.8592ZM49.2686 95.555V95.3534H51.6779V95.555H49.2686ZM51.6779 95.555V95.3534H54.0873V95.555H51.6779ZM54.0873 95.555V95.3534H56.4967V95.555H54.0873ZM56.4967 95.555V95.3534H58.9061V95.555H56.4967ZM58.9061 95.555V95.3534H61.3154V95.555H58.9061ZM61.8498 91.43C61.8123 91.4394 61.7764 91.4378 61.742 91.4253C61.7076 91.4128 61.6764 91.3941 61.6482 91.3691C61.6232 91.3441 61.6014 91.3144 61.5826 91.28C61.567 91.2456 61.5592 91.2081 61.5592 91.1675C61.5592 91.0925 61.5873 91.03 61.6436 90.98C61.6998 90.9269 61.7686 90.9003 61.8498 90.9003C61.9592 90.9003 62.0404 90.9409 62.0936 91.0222C62.1467 91.1003 62.1732 91.2003 62.1732 91.3222C62.1732 91.4909 62.1326 91.6394 62.0514 91.7675C61.9732 91.8956 61.8498 91.9909 61.6811 92.0534L61.6107 91.9597C61.7357 91.9066 61.8279 91.8378 61.8873 91.7534C61.9467 91.6691 61.9764 91.5753 61.9764 91.4722C61.9764 91.4378 61.9686 91.4175 61.9529 91.4113C61.9404 91.405 61.9248 91.405 61.9061 91.4113L61.8498 91.43Z" fill="black"/>
<path d="M22.2123 99.0675C22.2498 99.0581 22.2857 99.0597 22.3201 99.0722C22.3545 99.0815 22.3842 99.0987 22.4092 99.1237C22.4373 99.1487 22.4592 99.1784 22.4748 99.2128C22.4936 99.2472 22.5029 99.2847 22.5029 99.3253C22.5029 99.4034 22.4748 99.469 22.4186 99.5222C22.3623 99.5722 22.2936 99.5972 22.2123 99.5972C22.1029 99.5972 22.0217 99.5581 21.9686 99.48C21.9154 99.3987 21.8889 99.2956 21.8889 99.1706C21.8889 99.0019 21.9279 98.855 22.0061 98.73C22.0873 98.6019 22.2123 98.5065 22.3811 98.444L22.4467 98.5331C22.3248 98.5894 22.2342 98.6597 22.1748 98.744C22.1154 98.8284 22.0857 98.9222 22.0857 99.0253C22.0857 99.0597 22.092 99.08 22.1045 99.0862C22.1201 99.0925 22.1373 99.0925 22.1561 99.0862L22.2123 99.0675ZM22.7654 103.155V102.953H25.1748V103.155H22.7654ZM25.1748 103.155V102.953H27.5842V103.155H25.1748ZM27.5842 103.155V102.953H29.9936V103.155H27.5842ZM29.9936 103.155V102.953H32.4029V103.155H29.9936ZM32.4029 103.155V102.953H34.8123V103.155H32.4029ZM34.8123 103.155V102.953H37.2217V103.155H34.8123ZM37.2217 103.155V102.953H39.6311V103.155H37.2217ZM39.6311 103.155V102.953H42.0404V103.155H39.6311ZM42.0404 103.155V102.953H44.4498V103.155H42.0404ZM44.4498 103.155V102.953H46.8592V103.155H44.4498ZM46.8592 103.155V102.953H49.2686V103.155H46.8592ZM49.2686 103.155V102.953H51.6779V103.155H49.2686ZM51.6779 103.155V102.953H54.0873V103.155H51.6779ZM54.0873 103.155V102.953H56.4967V103.155H54.0873ZM56.4967 103.155V102.953H58.9061V103.155H56.4967ZM58.9061 103.155V102.953H61.3154V103.155H58.9061ZM61.8498 99.03C61.8123 99.0394 61.7764 99.0378 61.742 99.0253C61.7076 99.0128 61.6764 98.994 61.6482 98.969C61.6232 98.944 61.6014 98.9144 61.5826 98.88C61.567 98.8456 61.5592 98.8081 61.5592 98.7675C61.5592 98.6925 61.5873 98.63 61.6436 98.58C61.6998 98.5269 61.7686 98.5003 61.8498 98.5003C61.9592 98.5003 62.0404 98.5409 62.0936 98.6222C62.1467 98.7003 62.1732 98.8003 62.1732 98.9222C62.1732 99.0909 62.1326 99.2394 62.0514 99.3675C61.9732 99.4956 61.8498 99.5909 61.6811 99.6534L61.6107 99.5597C61.7357 99.5065 61.8279 99.4378 61.8873 99.3534C61.9467 99.269 61.9764 99.1753 61.9764 99.0722C61.9764 99.0378 61.9686 99.0175 61.9529 99.0112C61.9404 99.005 61.9248 99.005 61.9061 99.0112L61.8498 99.03Z" fill="black"/>
<path d="M22.2123 106.667C22.2498 106.658 22.2857 106.66 22.3201 106.672C22.3545 106.682 22.3842 106.699 22.4092 106.724C22.4373 106.749 22.4592 106.778 22.4748 106.813C22.4936 106.847 22.5029 106.885 22.5029 106.925C22.5029 107.003 22.4748 107.069 22.4186 107.122C22.3623 107.172 22.2936 107.197 22.2123 107.197C22.1029 107.197 22.0217 107.158 21.9686 107.08C21.9154 106.999 21.8889 106.896 21.8889 106.771C21.8889 106.602 21.9279 106.455 22.0061 106.33C22.0873 106.202 22.2123 106.107 22.3811 106.044L22.4467 106.133C22.3248 106.189 22.2342 106.26 22.1748 106.344C22.1154 106.428 22.0857 106.522 22.0857 106.625C22.0857 106.66 22.092 106.68 22.1045 106.686C22.1201 106.692 22.1373 106.692 22.1561 106.686L22.2123 106.667ZM22.7654 110.755V110.553H25.1748V110.755H22.7654ZM25.1748 110.755V110.553H27.5842V110.755H25.1748ZM27.5842 110.755V110.553H29.9936V110.755H27.5842ZM29.9936 110.755V110.553H32.4029V110.755H29.9936ZM32.4029 110.755V110.553H34.8123V110.755H32.4029ZM34.8123 110.755V110.553H37.2217V110.755H34.8123ZM37.2217 110.755V110.553H39.6311V110.755H37.2217ZM39.6311 110.755V110.553H42.0404V110.755H39.6311ZM42.0404 110.755V110.553H44.4498V110.755H42.0404ZM44.4498 110.755V110.553H46.8592V110.755H44.4498ZM46.8592 110.755V110.553H49.2686V110.755H46.8592ZM49.2686 110.755V110.553H51.6779V110.755H49.2686ZM51.6779 110.755V110.553H54.0873V110.755H51.6779ZM54.0873 110.755V110.553H56.4967V110.755H54.0873ZM56.4967 110.755V110.553H58.9061V110.755H56.4967ZM58.9061 110.755V110.553H61.3154V110.755H58.9061ZM61.8498 106.63C61.8123 106.639 61.7764 106.638 61.742 106.625C61.7076 106.613 61.6764 106.594 61.6482 106.569C61.6232 106.544 61.6014 106.514 61.5826 106.48C61.567 106.446 61.5592 106.408 61.5592 106.367C61.5592 106.292 61.5873 106.23 61.6436 106.18C61.6998 106.127 61.7686 106.1 61.8498 106.1C61.9592 106.1 62.0404 106.141 62.0936 106.222C62.1467 106.3 62.1732 106.4 62.1732 106.522C62.1732 106.691 62.1326 106.839 62.0514 106.967C61.9732 107.096 61.8498 107.191 61.6811 107.253L61.6107 107.16C61.7357 107.107 61.8279 107.038 61.8873 106.953C61.9467 106.869 61.9764 106.775 61.9764 106.672C61.9764 106.638 61.9686 106.617 61.9529 106.611C61.9404 106.605 61.9248 106.605 61.9061 106.611L61.8498 106.63Z" fill="black"/>
</svg>
