<svg width="468" height="642" viewBox="0 0 468 642" fill="none" xmlns="http://www.w3.org/2000/svg">
<rect width="468" height="642" fill="#F9F9F9" fill-opacity="0.8"/>
<rect x="0.5" y="0.5" width="467" height="641" stroke="#030303" stroke-opacity="0.1"/>
<path d="M62.5146 95.0366H53.3037V93.8413H62.5146V95.0366ZM71.5498 95.0366H62.3389V93.8413H71.5498V95.0366ZM85.9814 95.0366H76.7705V93.8413H85.9814V95.0366ZM95.0166 95.0366H85.8057V93.8413H95.0166V95.0366Z" fill="black"/>
<path d="M54.6396 132.93H57.8389V133.622H56.21C56.0537 133.622 55.96 133.637 55.9287 133.669C55.9053 133.7 55.8936 133.794 55.8936 133.95V142.505C55.8936 142.661 55.9092 142.766 55.9404 142.821C55.9717 142.876 56.0771 142.903 56.2568 142.903H57.8389V143.606H54.6396V132.93ZM67.4717 144.344H61.3311V143.548H67.4717V144.344ZM73.4951 144.344H67.3545V143.548H73.4951V144.344ZM83.1162 144.344H76.9756V143.548H83.1162V144.344ZM89.1396 144.344H82.999V143.548H89.1396V144.344ZM98.7607 144.344H92.6201V143.548H98.7607V144.344ZM104.784 144.344H98.6436V143.548H104.784V144.344ZM111.628 132.93V143.606H108.429V142.903H110.011C110.19 142.903 110.296 142.876 110.327 142.821C110.358 142.766 110.374 142.661 110.374 142.505V133.95C110.374 133.794 110.358 133.7 110.327 133.669C110.304 133.637 110.214 133.622 110.058 133.622H108.429V132.93H111.628Z" fill="black"/>
<path d="M53.4443 186.028V185.524H59.4678V186.028H53.4443ZM59.4678 186.028V185.524H65.4912V186.028H59.4678ZM65.4912 186.028V185.524H71.5146V186.028H65.4912ZM75.1123 186.028V185.524H81.1357V186.028H75.1123ZM84.7334 186.028V185.524H90.7568V186.028H84.7334ZM90.7568 186.028V185.524H96.7803V186.028H90.7568ZM96.7803 186.028V185.524H102.804V186.028H96.7803ZM106.401 186.028V185.524H112.425V186.028H106.401ZM112.425 186.028V185.524H118.448V186.028H112.425ZM118.448 186.028V185.524H124.472V186.028H118.448ZM128.069 186.028V185.524H134.093V186.028H128.069ZM134.093 186.028V185.524H140.116V186.028H134.093ZM140.116 186.028V185.524H146.14V186.028H140.116ZM146.14 186.028V185.524H152.163V186.028H146.14ZM152.163 186.028V185.524H158.187V186.028H152.163ZM158.187 186.028V185.524H164.21V186.028H158.187ZM164.21 186.028V185.524H170.233V186.028H164.21ZM171.78 184.739C171.569 184.739 171.397 184.672 171.265 184.539C171.132 184.406 171.065 184.239 171.065 184.035C171.065 183.84 171.132 183.676 171.265 183.543C171.397 183.403 171.569 183.332 171.78 183.332C171.991 183.332 172.167 183.403 172.308 183.543C172.448 183.676 172.519 183.84 172.519 184.035C172.519 184.239 172.448 184.406 172.308 184.539C172.167 184.672 171.991 184.739 171.78 184.739Z" fill="black"/>
<rect width="363" height="180.979" transform="translate(53 339.098)" fill="#E4E4E4"/>
<path d="M55.5303 227.169C55.624 227.146 55.7139 227.149 55.7998 227.181C55.8857 227.204 55.96 227.247 56.0225 227.31C56.0928 227.372 56.1475 227.446 56.1865 227.532C56.2334 227.618 56.2568 227.712 56.2568 227.813C56.2568 228.009 56.1865 228.173 56.0459 228.306C55.9053 228.431 55.7334 228.493 55.5303 228.493C55.2568 228.493 55.0537 228.396 54.9209 228.2C54.7881 227.997 54.7217 227.739 54.7217 227.427C54.7217 227.005 54.8193 226.638 55.0146 226.325C55.2178 226.005 55.5303 225.767 55.9521 225.61L56.1162 225.833C55.8115 225.974 55.585 226.149 55.4365 226.36C55.2881 226.571 55.2139 226.806 55.2139 227.063C55.2139 227.149 55.2295 227.2 55.2607 227.216C55.2998 227.231 55.3428 227.231 55.3896 227.216L55.5303 227.169ZM56.9131 237.388V236.884H62.9365V237.388H56.9131ZM62.9365 237.388V236.884H68.96V237.388H62.9365ZM68.96 237.388V236.884H74.9834V237.388H68.96ZM74.9834 237.388V236.884H81.0068V237.388H74.9834ZM81.0068 237.388V236.884H87.0303V237.388H81.0068ZM87.0303 237.388V236.884H93.0537V237.388H87.0303ZM93.0537 237.388V236.884H99.0771V237.388H93.0537ZM99.0771 237.388V236.884H105.101V237.388H99.0771ZM105.101 237.388V236.884H111.124V237.388H105.101ZM111.124 237.388V236.884H117.147V237.388H111.124ZM117.147 237.388V236.884H123.171V237.388H117.147ZM123.171 237.388V236.884H129.194V237.388H123.171ZM129.194 237.388V236.884H135.218V237.388H129.194ZM135.218 237.388V236.884H141.241V237.388H135.218ZM141.241 237.388V236.884H147.265V237.388H141.241ZM147.265 237.388V236.884H153.288V237.388H147.265ZM154.624 227.075C154.53 227.099 154.44 227.095 154.354 227.063C154.269 227.032 154.19 226.985 154.12 226.923C154.058 226.86 154.003 226.786 153.956 226.7C153.917 226.614 153.897 226.521 153.897 226.419C153.897 226.231 153.968 226.075 154.108 225.95C154.249 225.817 154.421 225.751 154.624 225.751C154.897 225.751 155.101 225.853 155.233 226.056C155.366 226.251 155.433 226.501 155.433 226.806C155.433 227.228 155.331 227.599 155.128 227.919C154.933 228.239 154.624 228.478 154.202 228.634L154.026 228.399C154.339 228.267 154.569 228.095 154.718 227.884C154.866 227.673 154.94 227.438 154.94 227.181C154.94 227.095 154.921 227.044 154.882 227.028C154.851 227.013 154.812 227.013 154.765 227.028L154.624 227.075Z" fill="black"/>
<path d="M55.5303 245.169C55.624 245.146 55.7139 245.149 55.7998 245.181C55.8857 245.204 55.96 245.247 56.0225 245.31C56.0928 245.372 56.1475 245.446 56.1865 245.532C56.2334 245.618 56.2568 245.712 56.2568 245.813C56.2568 246.009 56.1865 246.173 56.0459 246.306C55.9053 246.431 55.7334 246.493 55.5303 246.493C55.2568 246.493 55.0537 246.396 54.9209 246.2C54.7881 245.997 54.7217 245.739 54.7217 245.427C54.7217 245.005 54.8193 244.638 55.0146 244.325C55.2178 244.005 55.5303 243.767 55.9521 243.61L56.1162 243.833C55.8115 243.974 55.585 244.149 55.4365 244.36C55.2881 244.571 55.2139 244.806 55.2139 245.063C55.2139 245.149 55.2295 245.2 55.2607 245.216C55.2998 245.231 55.3428 245.231 55.3896 245.216L55.5303 245.169ZM56.9131 255.388V254.884H62.9365V255.388H56.9131ZM62.9365 255.388V254.884H68.96V255.388H62.9365ZM68.96 255.388V254.884H74.9834V255.388H68.96ZM74.9834 255.388V254.884H81.0068V255.388H74.9834ZM81.0068 255.388V254.884H87.0303V255.388H81.0068ZM87.0303 255.388V254.884H93.0537V255.388H87.0303ZM93.0537 255.388V254.884H99.0771V255.388H93.0537ZM99.0771 255.388V254.884H105.101V255.388H99.0771ZM105.101 255.388V254.884H111.124V255.388H105.101ZM111.124 255.388V254.884H117.147V255.388H111.124ZM117.147 255.388V254.884H123.171V255.388H117.147ZM123.171 255.388V254.884H129.194V255.388H123.171ZM129.194 255.388V254.884H135.218V255.388H129.194ZM135.218 255.388V254.884H141.241V255.388H135.218ZM141.241 255.388V254.884H147.265V255.388H141.241ZM147.265 255.388V254.884H153.288V255.388H147.265ZM154.624 245.075C154.53 245.099 154.44 245.095 154.354 245.063C154.269 245.032 154.19 244.985 154.12 244.923C154.058 244.86 154.003 244.786 153.956 244.7C153.917 244.614 153.897 244.521 153.897 244.419C153.897 244.231 153.968 244.075 154.108 243.95C154.249 243.817 154.421 243.751 154.624 243.751C154.897 243.751 155.101 243.853 155.233 244.056C155.366 244.251 155.433 244.501 155.433 244.806C155.433 245.228 155.331 245.599 155.128 245.919C154.933 246.239 154.624 246.478 154.202 246.634L154.026 246.399C154.339 246.267 154.569 246.095 154.718 245.884C154.866 245.673 154.94 245.438 154.94 245.181C154.94 245.095 154.921 245.044 154.882 245.028C154.851 245.013 154.812 245.013 154.765 245.028L154.624 245.075Z" fill="black"/>
<path d="M55.5303 263.169C55.624 263.146 55.7139 263.149 55.7998 263.181C55.8857 263.204 55.96 263.247 56.0225 263.31C56.0928 263.372 56.1475 263.446 56.1865 263.532C56.2334 263.618 56.2568 263.712 56.2568 263.813C56.2568 264.009 56.1865 264.173 56.0459 264.306C55.9053 264.431 55.7334 264.493 55.5303 264.493C55.2568 264.493 55.0537 264.396 54.9209 264.2C54.7881 263.997 54.7217 263.739 54.7217 263.427C54.7217 263.005 54.8193 262.638 55.0146 262.325C55.2178 262.005 55.5303 261.767 55.9521 261.61L56.1162 261.833C55.8115 261.974 55.585 262.149 55.4365 262.36C55.2881 262.571 55.2139 262.806 55.2139 263.063C55.2139 263.149 55.2295 263.2 55.2607 263.216C55.2998 263.231 55.3428 263.231 55.3896 263.216L55.5303 263.169ZM56.9131 273.388V272.884H62.9365V273.388H56.9131ZM62.9365 273.388V272.884H68.96V273.388H62.9365ZM68.96 273.388V272.884H74.9834V273.388H68.96ZM74.9834 273.388V272.884H81.0068V273.388H74.9834ZM81.0068 273.388V272.884H87.0303V273.388H81.0068ZM87.0303 273.388V272.884H93.0537V273.388H87.0303ZM93.0537 273.388V272.884H99.0771V273.388H93.0537ZM99.0771 273.388V272.884H105.101V273.388H99.0771ZM105.101 273.388V272.884H111.124V273.388H105.101ZM111.124 273.388V272.884H117.147V273.388H111.124ZM117.147 273.388V272.884H123.171V273.388H117.147ZM123.171 273.388V272.884H129.194V273.388H123.171ZM129.194 273.388V272.884H135.218V273.388H129.194ZM135.218 273.388V272.884H141.241V273.388H135.218ZM141.241 273.388V272.884H147.265V273.388H141.241ZM147.265 273.388V272.884H153.288V273.388H147.265ZM154.624 263.075C154.53 263.099 154.44 263.095 154.354 263.063C154.269 263.032 154.19 262.985 154.12 262.923C154.058 262.86 154.003 262.786 153.956 262.7C153.917 262.614 153.897 262.521 153.897 262.419C153.897 262.231 153.968 262.075 154.108 261.95C154.249 261.817 154.421 261.751 154.624 261.751C154.897 261.751 155.101 261.853 155.233 262.056C155.366 262.251 155.433 262.501 155.433 262.806C155.433 263.228 155.331 263.599 155.128 263.919C154.933 264.239 154.624 264.478 154.202 264.634L154.026 264.399C154.339 264.267 154.569 264.095 154.718 263.884C154.866 263.673 154.94 263.438 154.94 263.181C154.94 263.095 154.921 263.044 154.882 263.028C154.851 263.013 154.812 263.013 154.765 263.028L154.624 263.075Z" fill="black"/>
</svg>
