<svg width="1280" height="832" viewBox="0 0 1280 832" fill="none" xmlns="http://www.w3.org/2000/svg">
<g clip-path="url(#clip0_127_13)">
<rect width="1280" height="832" fill="#F5F5F5"/>
<rect opacity="0.4" x="209" y="53" width="1" height="779" fill="#030303" fill-opacity="0.4"/>
<rect y="416" width="1119" height="416" fill="#D9D9D9"/>
<rect x="1244" y="116" width="36" height="716" fill="#999999"/>
<rect x="1276" y="53" width="4" height="779" fill="#4C4A4A"/>
<rect x="1236" y="139" width="36" height="716" fill="#999999" fill-opacity="0.8"/>
<path d="M546.188 471.461V469.547H540.719C540.224 469.547 539.924 469.456 539.82 469.273C539.716 469.117 539.664 468.779 539.664 468.258V439.43C539.664 438.909 539.716 438.531 539.82 438.297C539.951 438.036 540.302 437.906 540.875 437.906H546.188V435.914H536.266V471.461H546.188ZM585.211 454.039C586.513 454.065 587.789 454.143 589.039 454.273V467.438C589.039 467.828 588.974 468.18 588.844 468.492C588.714 468.831 588.479 469.13 588.141 469.391C587.828 469.677 587.385 469.924 586.812 470.133C586.266 470.367 585.562 470.589 584.703 470.797L585.367 472.242C586.669 472.06 588.036 471.826 589.469 471.539C590.927 471.253 592.151 471.005 593.141 470.797C593.089 470.562 593.036 470.276 592.984 469.938C592.932 469.599 592.88 469.26 592.828 468.922C592.802 468.583 592.776 468.271 592.75 467.984C592.724 467.698 592.711 467.49 592.711 467.359V445.719C592.711 444.911 592.685 443.987 592.633 442.945C592.607 441.93 592.568 440.901 592.516 439.859C592.464 438.818 592.385 437.828 592.281 436.891C592.203 435.927 592.125 435.12 592.047 434.469L589.43 434.117C589.378 434.586 589.326 435.172 589.273 435.875C589.247 436.552 589.208 437.294 589.156 438.102C589.13 438.883 589.104 439.69 589.078 440.523C589.052 441.357 589.039 442.151 589.039 442.906V452.047C588.414 452.021 587.776 451.995 587.125 451.969C586.5 451.969 585.862 451.943 585.211 451.891V447.125C585.211 446.318 585.198 445.393 585.172 444.352C585.146 443.336 585.107 442.307 585.055 441.266C585.003 440.224 584.938 439.221 584.859 438.258C584.781 437.294 584.69 436.487 584.586 435.836L582.047 435.523C581.995 435.966 581.943 436.539 581.891 437.242C581.865 437.919 581.826 438.648 581.773 439.43C581.747 440.237 581.721 441.057 581.695 441.891C581.669 442.75 581.656 443.544 581.656 444.273V465.875C581.656 466.656 581.383 467.294 580.836 467.789C580.315 468.284 579.273 468.727 577.711 469.117L578.375 470.523C579.625 470.367 580.901 470.159 582.203 469.898C583.505 469.664 584.651 469.417 585.641 469.156C585.589 468.922 585.536 468.635 585.484 468.297C585.432 467.958 585.38 467.62 585.328 467.281C585.302 466.943 585.276 466.63 585.25 466.344C585.224 466.057 585.211 465.849 585.211 465.719V454.039ZM576.109 464.898C575.224 464.924 574.26 464.911 573.219 464.859C572.203 464.807 571.344 464.781 570.641 464.781C570.458 464.781 570.198 464.768 569.859 464.742C569.547 464.742 569.195 464.716 568.805 464.664C568.44 464.638 568.049 464.599 567.633 464.547C567.242 464.521 566.891 464.482 566.578 464.43L564.938 467.398C565.25 467.32 565.641 467.242 566.109 467.164C566.578 467.112 567.047 467.06 567.516 467.008C568.01 466.956 568.492 466.904 568.961 466.852C569.43 466.826 569.82 466.812 570.133 466.812C570.445 466.812 570.849 466.826 571.344 466.852C571.865 466.878 572.424 466.917 573.023 466.969C573.622 467.021 574.234 467.073 574.859 467.125C575.484 467.203 576.083 467.281 576.656 467.359L576.109 464.898ZM580.25 460.016C579.391 460.016 578.362 460.003 577.164 459.977C575.992 459.951 574.781 459.911 573.531 459.859C572.307 459.833 571.109 459.794 569.938 459.742C568.792 459.69 567.815 459.651 567.008 459.625C566.695 459.599 566.292 459.56 565.797 459.508C565.328 459.482 564.833 459.443 564.312 459.391C563.792 459.339 563.284 459.286 562.789 459.234C562.32 459.182 561.93 459.143 561.617 459.117L560.172 462.32C560.51 462.242 560.927 462.164 561.422 462.086C561.943 462.034 562.464 461.982 562.984 461.93C563.531 461.878 564.052 461.826 564.547 461.773C565.068 461.747 565.497 461.734 565.836 461.734C566.695 461.734 567.724 461.747 568.922 461.773C570.12 461.826 571.383 461.891 572.711 461.969C574.065 462.073 575.432 462.19 576.812 462.32C578.193 462.477 579.495 462.672 580.719 462.906L580.25 460.016ZM579.703 451.188C579.703 450.276 579.495 449.417 579.078 448.609C578.661 447.828 578.089 447.138 577.359 446.539C576.63 445.94 575.771 445.458 574.781 445.094C573.792 444.755 572.724 444.586 571.578 444.586C570.432 444.586 569.365 444.755 568.375 445.094C567.411 445.458 566.565 445.94 565.836 446.539C565.107 447.164 564.534 447.867 564.117 448.648C563.701 449.456 563.492 450.302 563.492 451.188C563.492 452.151 563.701 453.036 564.117 453.844C564.534 454.677 565.107 455.38 565.836 455.953C566.565 456.552 567.411 457.008 568.375 457.32C569.365 457.659 570.432 457.828 571.578 457.828C572.776 457.828 573.87 457.646 574.859 457.281C575.875 456.917 576.734 456.422 577.438 455.797C578.167 455.198 578.727 454.495 579.117 453.688C579.508 452.906 579.703 452.073 579.703 451.188ZM567.359 451.344C567.359 450.667 567.464 450.042 567.672 449.469C567.906 448.896 568.206 448.388 568.57 447.945C568.961 447.529 569.417 447.19 569.938 446.93C570.458 446.695 571.018 446.578 571.617 446.578C572.164 446.578 572.685 446.695 573.18 446.93C573.701 447.164 574.156 447.49 574.547 447.906C574.938 448.349 575.25 448.857 575.484 449.43C575.719 450.029 575.836 450.667 575.836 451.344C575.836 451.969 575.719 452.555 575.484 453.102C575.276 453.674 574.977 454.169 574.586 454.586C574.221 455.029 573.779 455.367 573.258 455.602C572.763 455.862 572.216 455.992 571.617 455.992C571.018 455.992 570.458 455.875 569.938 455.641C569.443 455.432 569 455.12 568.609 454.703C568.219 454.286 567.906 453.792 567.672 453.219C567.464 452.672 567.359 452.047 567.359 451.344ZM611.344 460.094C612.672 458.948 614.078 457.828 615.562 456.734C617.073 455.667 618.753 454.586 620.602 453.492L617.75 450.914C616.422 452.294 615.159 453.583 613.961 454.781C612.763 456.005 611.474 457.255 610.094 458.531C608.531 456.708 606.786 455.081 604.859 453.648C602.932 452.242 600.927 450.94 598.844 449.742L597.945 450.914C599.299 451.799 600.628 452.815 601.93 453.961C603.232 455.107 604.43 456.318 605.523 457.594C606.643 458.896 607.607 460.224 608.414 461.578C609.247 462.932 609.859 464.273 610.25 465.602C610.38 466.07 610.406 466.383 610.328 466.539C610.276 466.695 610.198 466.812 610.094 466.891C609.885 467.073 609.56 467.268 609.117 467.477C608.674 467.685 608.193 467.932 607.672 468.219L608.531 469.391C609.625 469.104 610.771 468.779 611.969 468.414C613.193 468.049 614.312 467.685 615.328 467.32C614.833 465.914 614.247 464.612 613.57 463.414C612.919 462.242 612.177 461.135 611.344 460.094ZM611.148 447.867C612.503 447.867 614 447.893 615.641 447.945C617.307 447.997 618.961 448.062 620.602 448.141C622.242 448.245 623.805 448.349 625.289 448.453C626.773 448.557 628.023 448.661 629.039 448.766C628.935 448.089 628.857 447.555 628.805 447.164C628.779 446.799 628.766 446.396 628.766 445.953V440.523C628.766 439.768 628.714 438.883 628.609 437.867C628.531 436.852 628.349 435.901 628.062 435.016L625.406 434.508C625.354 434.82 625.302 435.198 625.25 435.641C625.224 436.083 625.198 436.552 625.172 437.047C625.146 437.516 625.12 437.984 625.094 438.453C625.068 438.896 625.055 439.286 625.055 439.625V446.344C624.065 446.396 623.023 446.409 621.93 446.383C620.836 446.357 619.729 446.305 618.609 446.227C617.49 446.174 616.37 446.109 615.25 446.031C614.156 445.953 613.102 445.875 612.086 445.797C611.279 445.745 610.484 445.667 609.703 445.562C608.922 445.458 608.102 445.341 607.242 445.211L605.797 448.297C606.161 448.245 606.565 448.193 607.008 448.141C607.477 448.089 607.958 448.036 608.453 447.984C608.948 447.958 609.43 447.932 609.898 447.906C610.367 447.88 610.784 447.867 611.148 447.867ZM625.328 459.859C624.547 459.807 623.74 459.755 622.906 459.703C622.099 459.651 621.305 459.586 620.523 459.508C619.768 459.43 619.052 459.352 618.375 459.273C617.724 459.195 617.164 459.117 616.695 459.039L615.289 462.047C615.628 461.995 616.018 461.943 616.461 461.891C616.904 461.865 617.359 461.826 617.828 461.773C618.297 461.747 618.753 461.721 619.195 461.695C619.664 461.695 620.094 461.695 620.484 461.695C621.083 461.721 621.826 461.734 622.711 461.734C623.622 461.734 624.495 461.76 625.328 461.812V467.477C625.328 468.284 624.938 468.935 624.156 469.43C623.401 469.951 622.164 470.419 620.445 470.836L621.148 472.281C621.773 472.203 622.464 472.099 623.219 471.969C623.974 471.865 624.729 471.734 625.484 471.578C626.24 471.448 626.956 471.318 627.633 471.188C628.336 471.057 628.948 470.953 629.469 470.875C629.417 470.641 629.365 470.354 629.312 470.016C629.26 469.677 629.208 469.326 629.156 468.961C629.13 468.622 629.104 468.31 629.078 468.023C629.052 467.737 629.039 467.529 629.039 467.398V456.383C629.039 455.914 629.013 455.367 628.961 454.742C628.909 454.143 628.844 453.531 628.766 452.906C628.714 452.281 628.648 451.682 628.57 451.109C628.492 450.562 628.414 450.12 628.336 449.781L625.68 449.391C625.628 449.677 625.576 450.029 625.523 450.445C625.497 450.862 625.458 451.292 625.406 451.734C625.38 452.177 625.354 452.62 625.328 453.062C625.328 453.531 625.328 453.948 625.328 454.312V459.859ZM676.773 445.719C676.773 444.911 676.747 443.974 676.695 442.906C676.669 441.865 676.63 440.81 676.578 439.742C676.526 438.701 676.461 437.711 676.383 436.773C676.305 435.81 676.227 435.042 676.148 434.469L673.453 434.117C673.401 434.534 673.349 435.094 673.297 435.797C673.271 436.5 673.232 437.255 673.18 438.062C673.154 438.844 673.128 439.651 673.102 440.484C673.102 441.344 673.102 442.151 673.102 442.906V467.438C673.102 468.245 672.724 468.896 671.969 469.391C671.24 469.911 670.016 470.38 668.297 470.797L668.922 472.242C669.573 472.164 670.276 472.06 671.031 471.93C671.786 471.826 672.542 471.695 673.297 471.539C674.052 471.409 674.768 471.279 675.445 471.148C676.148 471.018 676.747 470.914 677.242 470.836C677.19 470.602 677.125 470.315 677.047 469.977C676.995 469.638 676.943 469.286 676.891 468.922C676.865 468.583 676.839 468.271 676.812 467.984C676.786 467.698 676.773 467.49 676.773 467.359V454.781C677.945 454.885 679.26 455.003 680.719 455.133C682.177 455.289 683.492 455.471 684.664 455.68L684.234 452.516C683.792 452.542 683.258 452.555 682.633 452.555C682.008 452.555 681.357 452.555 680.68 452.555C680.003 452.555 679.326 452.555 678.648 452.555C677.971 452.555 677.346 452.555 676.773 452.555V445.719ZM670.523 460.68C669.924 460.68 669.195 460.68 668.336 460.68C667.477 460.68 666.539 460.667 665.523 460.641C664.534 460.615 663.505 460.589 662.438 460.562C661.37 460.536 660.341 460.51 659.352 460.484C658.362 460.458 657.451 460.432 656.617 460.406C655.784 460.38 655.094 460.354 654.547 460.328C654.234 460.302 653.818 460.263 653.297 460.211C652.802 460.185 652.281 460.146 651.734 460.094C651.188 460.042 650.667 459.977 650.172 459.898C649.677 459.846 649.273 459.794 648.961 459.742L647.477 462.984C647.815 462.906 648.245 462.828 648.766 462.75C649.286 462.698 649.82 462.646 650.367 462.594C650.914 462.542 651.448 462.49 651.969 462.438C652.49 462.411 652.932 462.398 653.297 462.398C654.182 462.398 655.354 462.411 656.812 462.438C658.297 462.49 659.872 462.555 661.539 462.633C663.232 462.737 664.911 462.854 666.578 462.984C668.271 463.141 669.755 463.336 671.031 463.57L670.523 460.68ZM668.18 451.148C668.18 450.211 667.958 449.312 667.516 448.453C667.073 447.62 666.461 446.878 665.68 446.227C664.924 445.602 664.013 445.107 662.945 444.742C661.904 444.378 660.784 444.195 659.586 444.195C658.362 444.195 657.216 444.378 656.148 444.742C655.107 445.133 654.195 445.641 653.414 446.266C652.659 446.891 652.06 447.62 651.617 448.453C651.174 449.312 650.953 450.211 650.953 451.148C650.953 452.19 651.174 453.141 651.617 454C652.06 454.859 652.659 455.589 653.414 456.188C654.195 456.812 655.107 457.294 656.148 457.633C657.216 457.971 658.362 458.141 659.586 458.141C660.862 458.141 662.021 457.945 663.062 457.555C664.13 457.19 665.042 456.682 665.797 456.031C666.552 455.406 667.138 454.664 667.555 453.805C667.971 452.971 668.18 452.086 668.18 451.148ZM654.82 451.344C654.82 450.667 654.938 450.029 655.172 449.43C655.432 448.831 655.784 448.297 656.227 447.828C656.669 447.385 657.177 447.021 657.75 446.734C658.349 446.474 658.987 446.344 659.664 446.344C660.289 446.344 660.888 446.474 661.461 446.734C662.034 446.995 662.529 447.346 662.945 447.789C663.388 448.232 663.74 448.753 664 449.352C664.26 449.977 664.391 450.641 664.391 451.344C664.391 451.995 664.273 452.607 664.039 453.18C663.805 453.779 663.479 454.299 663.062 454.742C662.646 455.185 662.138 455.536 661.539 455.797C660.966 456.083 660.341 456.227 659.664 456.227C658.284 456.227 657.125 455.771 656.188 454.859C655.276 453.974 654.82 452.802 654.82 451.344ZM664.742 465.875C664.299 465.875 663.818 465.875 663.297 465.875C662.776 465.875 662.255 465.862 661.734 465.836C661.214 465.836 660.706 465.823 660.211 465.797C659.742 465.797 659.339 465.797 659 465.797C658.818 465.797 658.557 465.784 658.219 465.758C657.88 465.758 657.503 465.732 657.086 465.68C656.669 465.654 656.253 465.615 655.836 465.562C655.419 465.536 655.042 465.497 654.703 465.445L653.102 468.453C653.414 468.375 653.805 468.297 654.273 468.219C654.742 468.141 655.224 468.062 655.719 467.984C656.24 467.906 656.734 467.841 657.203 467.789C657.698 467.763 658.115 467.75 658.453 467.75C658.766 467.75 659.195 467.763 659.742 467.789C660.289 467.815 660.875 467.854 661.5 467.906C662.151 467.984 662.802 468.062 663.453 468.141C664.13 468.219 664.768 468.297 665.367 468.375L664.742 465.875ZM710.68 467.438C710.68 468.245 710.302 468.896 709.547 469.391C708.818 469.911 707.594 470.38 705.875 470.797L706.461 472.242C707.112 472.164 707.815 472.06 708.57 471.93C709.352 471.826 710.12 471.695 710.875 471.539C711.63 471.409 712.346 471.279 713.023 471.148C713.701 471.018 714.286 470.914 714.781 470.836C714.729 470.602 714.677 470.315 714.625 469.977C714.573 469.638 714.521 469.286 714.469 468.922C714.443 468.583 714.417 468.271 714.391 467.984C714.365 467.698 714.352 467.49 714.352 467.359V456.539C715.471 456.617 716.76 456.734 718.219 456.891C719.677 457.047 721.005 457.229 722.203 457.438L721.773 454.273C721.305 454.299 720.758 454.312 720.133 454.312C719.508 454.312 718.857 454.312 718.18 454.312C717.529 454.312 716.865 454.312 716.188 454.312C715.51 454.312 714.898 454.312 714.352 454.312V445.719C714.352 444.911 714.339 443.974 714.312 442.906C714.286 441.865 714.247 440.81 714.195 439.742C714.143 438.701 714.078 437.711 714 436.773C713.922 435.81 713.831 435.042 713.727 434.469L711.031 434.117C710.979 434.534 710.927 435.094 710.875 435.797C710.849 436.5 710.81 437.255 710.758 438.062C710.732 438.844 710.706 439.651 710.68 440.484C710.68 441.344 710.68 442.151 710.68 442.906V450.367C709.482 449.898 708.128 449.417 706.617 448.922C705.133 448.427 703.609 447.958 702.047 447.516C700.484 447.073 698.961 446.669 697.477 446.305C695.992 445.966 694.664 445.719 693.492 445.562C692.138 445.354 691.161 445.51 690.562 446.031C689.99 446.578 689.703 447.477 689.703 448.727V460.094C689.703 460.562 689.664 460.966 689.586 461.305C689.508 461.669 689.339 461.969 689.078 462.203C688.844 462.464 688.492 462.685 688.023 462.867C687.581 463.076 686.995 463.284 686.266 463.492L686.852 464.938C688.336 464.703 689.911 464.547 691.578 464.469C693.271 464.417 694.964 464.417 696.656 464.469C698.349 464.547 699.99 464.664 701.578 464.82C703.193 465.003 704.664 465.211 705.992 465.445L705.406 462.438C702.958 462.542 700.719 462.568 698.688 462.516C696.682 462.464 694.911 462.372 693.375 462.242V449.508C693.375 449.065 693.453 448.766 693.609 448.609C693.792 448.453 694.026 448.388 694.312 448.414C695.198 448.466 696.318 448.609 697.672 448.844C699.052 449.104 700.497 449.404 702.008 449.742C703.544 450.081 705.068 450.445 706.578 450.836C708.115 451.253 709.482 451.656 710.68 452.047V467.438ZM744.977 435.914H735.055V437.906H740.367C740.94 437.906 741.279 438.036 741.383 438.297C741.513 438.531 741.578 438.909 741.578 439.43V468.258C741.578 468.779 741.526 469.117 741.422 469.273C741.318 469.456 741.018 469.547 740.523 469.547H735.055V471.461H744.977V435.914Z" fill="url(#paint0_linear_127_13)"/>
</g>
<defs>
<linearGradient id="paint0_linear_127_13" x1="640" y1="430" x2="640" y2="476" gradientUnits="userSpaceOnUse">
<stop stop-color="white"/>
<stop offset="1" stop-color="white" stop-opacity="0.7"/>
</linearGradient>
<clipPath id="clip0_127_13">
<rect width="1280" height="832" fill="white"/>
</clipPath>
</defs>
</svg>
