<svg width="200" height="200" viewBox="0 0 200 200" fill="none" xmlns="http://www.w3.org/2000/svg">
<rect width="200" height="200" fill="white"/>
<rect x="5" y="7" width="190" height="187" rx="1" fill="#BFBFBF" fill-opacity="0.4"/>
<path d="M169.957 168.286L195 140V194H147L169.957 168.286Z" fill="white"/>
<path d="M172.043 165.714L147 194V140H195L172.043 165.714Z" fill="#CECECE"/>
<path d="M54.1523 76.4648C55.3242 76.4414 56.4727 76.3711 57.5977 76.2539V64.4062C57.5977 64.0547 57.5391 63.7383 57.4219 63.457C57.3047 63.1523 57.0938 62.8828 56.7891 62.6484C56.5078 62.3906 56.1094 62.168 55.5938 61.9805C55.1016 61.7695 54.4688 61.5703 53.6953 61.3828L54.293 60.082C55.4648 60.2461 56.6953 60.457 57.9844 60.7148C59.2969 60.9727 60.3984 61.1953 61.2891 61.3828C61.2422 61.5938 61.1953 61.8516 61.1484 62.1562C61.1016 62.4609 61.0547 62.7656 61.0078 63.0703C60.9844 63.375 60.9609 63.6562 60.9375 63.9141C60.9141 64.1719 60.9023 64.3594 60.9023 64.4766V83.9531C60.9023 84.6797 60.8789 85.5117 60.832 86.4492C60.8086 87.3633 60.7734 88.2891 60.7266 89.2266C60.6797 90.1641 60.6094 91.0547 60.5156 91.8984C60.4453 92.7656 60.375 93.4922 60.3047 94.0781L57.9492 94.3945C57.9023 93.9727 57.8555 93.4453 57.8086 92.8125C57.7852 92.2031 57.75 91.5352 57.7031 90.8086C57.6797 90.1055 57.6562 89.3789 57.6328 88.6289C57.6094 87.8789 57.5977 87.1641 57.5977 86.4844V78.2578C57.0352 78.2812 56.4609 78.3047 55.875 78.3281C55.3125 78.3281 54.7383 78.3516 54.1523 78.3984V82.6875C54.1523 83.4141 54.1406 84.2461 54.1172 85.1836C54.0938 86.0977 54.0586 87.0234 54.0117 87.9609C53.9648 88.8984 53.9062 89.8008 53.8359 90.668C53.7656 91.5352 53.6836 92.2617 53.5898 92.8477L51.3047 93.1289C51.2578 92.7305 51.2109 92.2148 51.1641 91.582C51.1406 90.9727 51.1055 90.3164 51.0586 89.6133C51.0352 88.8867 51.0117 88.1484 50.9883 87.3984C50.9648 86.625 50.9531 85.9102 50.9531 85.2539V65.8125C50.9531 65.1094 50.707 64.5352 50.2148 64.0898C49.7461 63.6445 48.8086 63.2461 47.4023 62.8945L48 61.6289C49.125 61.7695 50.2734 61.957 51.4453 62.1914C52.6172 62.4023 53.6484 62.625 54.5391 62.8594C54.4922 63.0703 54.4453 63.3281 54.3984 63.6328C54.3516 63.9375 54.3047 64.2422 54.2578 64.5469C54.2344 64.8516 54.2109 65.1328 54.1875 65.3906C54.1641 65.6484 54.1523 65.8359 54.1523 65.9531V76.4648ZM45.9609 66.6914C45.1641 66.668 44.2969 66.6797 43.3594 66.7266C42.4453 66.7734 41.6719 66.7969 41.0391 66.7969C40.875 66.7969 40.6406 66.8086 40.3359 66.832C40.0547 66.832 39.7383 66.8555 39.3867 66.9023C39.0586 66.9258 38.707 66.9609 38.332 67.0078C37.9805 67.0312 37.6641 67.0664 37.3828 67.1133L35.9062 64.4414C36.1875 64.5117 36.5391 64.582 36.9609 64.6523C37.3828 64.6992 37.8047 64.7461 38.2266 64.793C38.6719 64.8398 39.1055 64.8867 39.5273 64.9336C39.9492 64.957 40.3008 64.9688 40.582 64.9688C40.8633 64.9688 41.2266 64.957 41.6719 64.9336C42.1406 64.9102 42.6445 64.875 43.1836 64.8281C43.7227 64.7812 44.2734 64.7344 44.8359 64.6875C45.3984 64.6172 45.9375 64.5469 46.4531 64.4766L45.9609 66.6914ZM49.6875 71.0859C48.9141 71.0859 47.9883 71.0977 46.9102 71.1211C45.8555 71.1445 44.7656 71.1797 43.6406 71.2266C42.5391 71.25 41.4609 71.2852 40.4062 71.332C39.375 71.3789 38.4961 71.4141 37.7695 71.4375C37.4883 71.4609 37.125 71.4961 36.6797 71.543C36.2578 71.5664 35.8125 71.6016 35.3438 71.6484C34.875 71.6953 34.418 71.7422 33.9727 71.7891C33.5508 71.8359 33.1992 71.8711 32.918 71.8945L31.6172 69.0117C31.9219 69.082 32.2969 69.1523 32.7422 69.2227C33.2109 69.2695 33.6797 69.3164 34.1484 69.3633C34.6406 69.4102 35.1094 69.457 35.5547 69.5039C36.0234 69.5273 36.4102 69.5391 36.7148 69.5391C37.4883 69.5391 38.4141 69.5273 39.4922 69.5039C40.5703 69.457 41.707 69.3984 42.9023 69.3281C44.1211 69.2344 45.3516 69.1289 46.5938 69.0117C47.8359 68.8711 49.0078 68.6953 50.1094 68.4844L49.6875 71.0859ZM49.1953 79.0312C49.1953 79.8516 49.0078 80.625 48.6328 81.3516C48.2578 82.0547 47.7422 82.6758 47.0859 83.2148C46.4297 83.7539 45.6562 84.1875 44.7656 84.5156C43.875 84.8203 42.9141 84.9727 41.8828 84.9727C40.8516 84.9727 39.8906 84.8203 39 84.5156C38.1328 84.1875 37.3711 83.7539 36.7148 83.2148C36.0586 82.6523 35.543 82.0195 35.168 81.3164C34.793 80.5898 34.6055 79.8281 34.6055 79.0312C34.6055 78.1641 34.793 77.3672 35.168 76.6406C35.543 75.8906 36.0586 75.2578 36.7148 74.7422C37.3711 74.2031 38.1328 73.793 39 73.5117C39.8906 73.207 40.8516 73.0547 41.8828 73.0547C42.9609 73.0547 43.9453 73.2188 44.8359 73.5469C45.75 73.875 46.5234 74.3203 47.1562 74.8828C47.8125 75.4219 48.3164 76.0547 48.668 76.7812C49.0195 77.4844 49.1953 78.2344 49.1953 79.0312ZM38.0859 78.8906C38.0859 79.5 38.1797 80.0625 38.3672 80.5781C38.5781 81.0938 38.8477 81.5508 39.1758 81.9492C39.5273 82.3242 39.9375 82.6289 40.4062 82.8633C40.875 83.0742 41.3789 83.1797 41.918 83.1797C42.4102 83.1797 42.8789 83.0742 43.3242 82.8633C43.793 82.6523 44.2031 82.3594 44.5547 81.9844C44.9062 81.5859 45.1875 81.1289 45.3984 80.6133C45.6094 80.0742 45.7148 79.5 45.7148 78.8906C45.7148 78.3281 45.6094 77.8008 45.3984 77.3086C45.2109 76.793 44.9414 76.3477 44.5898 75.9727C44.2617 75.5742 43.8633 75.2695 43.3945 75.0586C42.9492 74.8242 42.457 74.707 41.918 74.707C41.3789 74.707 40.875 74.8125 40.4062 75.0234C39.9609 75.2109 39.5625 75.4922 39.2109 75.8672C38.8594 76.2422 38.5781 76.6875 38.3672 77.2031C38.1797 77.6953 38.0859 78.2578 38.0859 78.8906ZM77.6719 71.0156C78.8672 72.0469 80.1328 73.0547 81.4688 74.0391C82.8281 75 84.3398 75.9727 86.0039 76.957L83.4375 79.2773C82.2422 78.0352 81.1055 76.875 80.0273 75.7969C78.9492 74.6953 77.7891 73.5703 76.5469 72.4219C75.1406 74.0625 73.5703 75.5273 71.8359 76.8164C70.1016 78.082 68.2969 79.2539 66.4219 80.332L65.6133 79.2773C66.832 78.4805 68.0273 77.5664 69.1992 76.5352C70.3711 75.5039 71.4492 74.4141 72.4336 73.2656C73.4414 72.0938 74.3086 70.8984 75.0352 69.6797C75.7852 68.4609 76.3359 67.2539 76.6875 66.0586C76.8047 65.6367 76.8281 65.3555 76.7578 65.2148C76.7109 65.0742 76.6406 64.9688 76.5469 64.8984C76.3594 64.7344 76.0664 64.5586 75.668 64.3711C75.2695 64.1836 74.8359 63.9609 74.3672 63.7031L75.1406 62.6484C76.125 62.9062 77.1562 63.1992 78.2344 63.5273C79.3359 63.8555 80.3438 64.1836 81.2578 64.5117C80.8125 65.7773 80.2852 66.9492 79.6758 68.0273C79.0898 69.082 78.4219 70.0781 77.6719 71.0156ZM77.4961 82.0195C78.7148 82.0195 80.0625 81.9961 81.5391 81.9492C83.0391 81.9023 84.5273 81.8438 86.0039 81.7734C87.4805 81.6797 88.8867 81.5859 90.2227 81.4922C91.5586 81.3984 92.6836 81.3047 93.5977 81.2109C93.5039 81.8203 93.4336 82.3008 93.3867 82.6523C93.3633 82.9805 93.3516 83.3438 93.3516 83.7422V88.6289C93.3516 89.3086 93.3047 90.1055 93.2109 91.0195C93.1406 91.9336 92.9766 92.7891 92.7188 93.5859L90.3281 94.043C90.2812 93.7617 90.2344 93.4219 90.1875 93.0234C90.1641 92.625 90.1406 92.2031 90.1172 91.7578C90.0938 91.3359 90.0703 90.9141 90.0469 90.4922C90.0234 90.0938 90.0117 89.7422 90.0117 89.4375V83.3906C89.1211 83.3438 88.1836 83.332 87.1992 83.3555C86.2148 83.3789 85.2188 83.4258 84.2109 83.4961C83.2031 83.543 82.1953 83.6016 81.1875 83.6719C80.2031 83.7422 79.2539 83.8125 78.3398 83.8828C77.6133 83.9297 76.8984 84 76.1953 84.0938C75.4922 84.1875 74.7539 84.293 73.9805 84.4102L72.6797 81.6328C73.0078 81.6797 73.3711 81.7266 73.7695 81.7734C74.1914 81.8203 74.625 81.8672 75.0703 81.9141C75.5156 81.9375 75.9492 81.9609 76.3711 81.9844C76.793 82.0078 77.168 82.0195 77.4961 82.0195ZM90.2578 71.2266C89.5547 71.2734 88.8281 71.3203 88.0781 71.3672C87.3516 71.4141 86.6367 71.4727 85.9336 71.543C85.2539 71.6133 84.6094 71.6836 84 71.7539C83.4141 71.8242 82.9102 71.8945 82.4883 71.9648L81.2227 69.2578C81.5273 69.3047 81.8789 69.3516 82.2773 69.3984C82.6758 69.4219 83.0859 69.457 83.5078 69.5039C83.9297 69.5273 84.3398 69.5508 84.7383 69.5742C85.1602 69.5742 85.5469 69.5742 85.8984 69.5742C86.4375 69.5508 87.1055 69.5391 87.9023 69.5391C88.7227 69.5391 89.5078 69.5156 90.2578 69.4688V64.3711C90.2578 63.6445 89.9062 63.0586 89.2031 62.6133C88.5234 62.1445 87.4102 61.7227 85.8633 61.3477L86.4961 60.0469C87.0586 60.1172 87.6797 60.2109 88.3594 60.3281C89.0391 60.4219 89.7188 60.5391 90.3984 60.6797C91.0781 60.7969 91.7227 60.9141 92.332 61.0312C92.9648 61.1484 93.5156 61.2422 93.9844 61.3125C93.9375 61.5234 93.8906 61.7812 93.8438 62.0859C93.7969 62.3906 93.75 62.707 93.7031 63.0352C93.6797 63.3398 93.6562 63.6211 93.6328 63.8789C93.6094 64.1367 93.5977 64.3242 93.5977 64.4414V74.3555C93.5977 74.7773 93.5742 75.2695 93.5273 75.832C93.4805 76.3711 93.4219 76.9219 93.3516 77.4844C93.3047 78.0469 93.2461 78.5859 93.1758 79.1016C93.1055 79.5938 93.0352 79.9922 92.9648 80.2969L90.5742 80.6484C90.5273 80.3906 90.4805 80.0742 90.4336 79.6992C90.4102 79.3242 90.375 78.9375 90.3281 78.5391C90.3047 78.1406 90.2812 77.7422 90.2578 77.3438C90.2578 76.9219 90.2578 76.5469 90.2578 76.2188V71.2266ZM125.766 83.9531C125.766 84.6797 125.742 85.5234 125.695 86.4844C125.672 87.4219 125.637 88.3711 125.59 89.332C125.543 90.2695 125.484 91.1602 125.414 92.0039C125.344 92.8711 125.273 93.5625 125.203 94.0781L122.777 94.3945C122.73 94.0195 122.684 93.5156 122.637 92.8828C122.613 92.25 122.578 91.5703 122.531 90.8438C122.508 90.1406 122.484 89.4141 122.461 88.6641C122.461 87.8906 122.461 87.1641 122.461 86.4844V64.4062C122.461 63.6797 122.121 63.0938 121.441 62.6484C120.785 62.1797 119.684 61.7578 118.137 61.3828L118.699 60.082C119.285 60.1523 119.918 60.2461 120.598 60.3633C121.277 60.457 121.957 60.5742 122.637 60.7148C123.316 60.832 123.961 60.9492 124.57 61.0664C125.203 61.1836 125.742 61.2773 126.188 61.3477C126.141 61.5586 126.082 61.8164 126.012 62.1211C125.965 62.4258 125.918 62.7422 125.871 63.0703C125.848 63.375 125.824 63.6562 125.801 63.9141C125.777 64.1719 125.766 64.3594 125.766 64.4766V75.7969C126.82 75.7031 128.004 75.5977 129.316 75.4805C130.629 75.3398 131.812 75.1758 132.867 74.9883L132.48 77.8359C132.082 77.8125 131.602 77.8008 131.039 77.8008C130.477 77.8008 129.891 77.8008 129.281 77.8008C128.672 77.8008 128.062 77.8008 127.453 77.8008C126.844 77.8008 126.281 77.8008 125.766 77.8008V83.9531ZM120.141 70.4883C119.602 70.4883 118.945 70.4883 118.172 70.4883C117.398 70.4883 116.555 70.5 115.641 70.5234C114.75 70.5469 113.824 70.5703 112.863 70.5938C111.902 70.6172 110.977 70.6406 110.086 70.6641C109.195 70.6875 108.375 70.7109 107.625 70.7344C106.875 70.7578 106.254 70.7812 105.762 70.8047C105.48 70.8281 105.105 70.8633 104.637 70.9102C104.191 70.9336 103.723 70.9688 103.23 71.0156C102.738 71.0625 102.27 71.1211 101.824 71.1914C101.379 71.2383 101.016 71.2852 100.734 71.332L99.3984 68.4141C99.7031 68.4844 100.09 68.5547 100.559 68.625C101.027 68.6719 101.508 68.7188 102 68.7656C102.492 68.8125 102.973 68.8594 103.441 68.9062C103.91 68.9297 104.309 68.9414 104.637 68.9414C105.434 68.9414 106.488 68.9297 107.801 68.9062C109.137 68.8594 110.555 68.8008 112.055 68.7305C113.578 68.6367 115.09 68.5312 116.59 68.4141C118.113 68.2734 119.449 68.0977 120.598 67.8867L120.141 70.4883ZM118.031 79.0664C118.031 79.9102 117.832 80.7188 117.434 81.4922C117.035 82.2422 116.484 82.9102 115.781 83.4961C115.102 84.0586 114.281 84.5039 113.32 84.832C112.383 85.1602 111.375 85.3242 110.297 85.3242C109.195 85.3242 108.164 85.1602 107.203 84.832C106.266 84.4805 105.445 84.0234 104.742 83.4609C104.062 82.8984 103.523 82.2422 103.125 81.4922C102.727 80.7188 102.527 79.9102 102.527 79.0664C102.527 78.1289 102.727 77.2734 103.125 76.5C103.523 75.7266 104.062 75.0703 104.742 74.5312C105.445 73.9688 106.266 73.5352 107.203 73.2305C108.164 72.9258 109.195 72.7734 110.297 72.7734C111.445 72.7734 112.488 72.9492 113.426 73.3008C114.387 73.6289 115.207 74.0859 115.887 74.6719C116.566 75.2344 117.094 75.9023 117.469 76.6758C117.844 77.4258 118.031 78.2227 118.031 79.0664ZM106.008 78.8906C106.008 79.5 106.113 80.0742 106.324 80.6133C106.559 81.1523 106.875 81.6328 107.273 82.0547C107.672 82.4531 108.129 82.7812 108.645 83.0391C109.184 83.2734 109.758 83.3906 110.367 83.3906C110.93 83.3906 111.469 83.2734 111.984 83.0391C112.5 82.8047 112.945 82.4883 113.32 82.0898C113.719 81.6914 114.035 81.2227 114.27 80.6836C114.504 80.1211 114.621 79.5234 114.621 78.8906C114.621 78.3047 114.516 77.7539 114.305 77.2383C114.094 76.6992 113.801 76.2305 113.426 75.832C113.051 75.4336 112.594 75.1172 112.055 74.8828C111.539 74.625 110.977 74.4961 110.367 74.4961C109.125 74.4961 108.082 74.9062 107.238 75.7266C106.418 76.5234 106.008 77.5781 106.008 78.8906ZM114.938 65.8125C114.539 65.8125 114.105 65.8125 113.637 65.8125C113.168 65.8125 112.699 65.8242 112.23 65.8477C111.762 65.8477 111.305 65.8594 110.859 65.8828C110.438 65.8828 110.074 65.8828 109.77 65.8828C109.605 65.8828 109.371 65.8945 109.066 65.918C108.762 65.918 108.422 65.9414 108.047 65.9883C107.672 66.0117 107.297 66.0469 106.922 66.0938C106.547 66.1172 106.207 66.1523 105.902 66.1992L104.461 63.4922C104.742 63.5625 105.094 63.6328 105.516 63.7031C105.938 63.7734 106.371 63.8438 106.816 63.9141C107.285 63.9844 107.73 64.043 108.152 64.0898C108.598 64.1133 108.973 64.125 109.277 64.125C109.559 64.125 109.945 64.1133 110.438 64.0898C110.93 64.0664 111.457 64.0312 112.02 63.9844C112.605 63.9141 113.191 63.8438 113.777 63.7734C114.387 63.7031 114.961 63.6328 115.5 63.5625L114.938 65.8125ZM153.223 67.1133C152.543 69.1523 151.605 71.1445 150.41 73.0898C149.238 75.0117 147.891 76.8164 146.367 78.5039C144.867 80.168 143.227 81.6914 141.445 83.0742C139.664 84.4336 137.848 85.582 135.996 86.5195L134.941 85.4648C136.629 84.4805 138.223 83.3203 139.723 81.9844C141.223 80.625 142.57 79.1953 143.766 77.6953C144.984 76.1953 146.027 74.6602 146.895 73.0898C147.762 71.5195 148.406 70.0078 148.828 68.5547C148.477 68.5547 148.02 68.5664 147.457 68.5898C146.918 68.6133 146.344 68.6367 145.734 68.6602C145.148 68.6602 144.574 68.6719 144.012 68.6953C143.449 68.7188 143.004 68.7305 142.676 68.7305C142.418 68.7305 142.078 68.7539 141.656 68.8008C141.234 68.8477 140.777 68.8945 140.285 68.9414C139.793 68.9883 139.301 69.0469 138.809 69.1172C138.316 69.1641 137.883 69.2227 137.508 69.293L135.715 66.4805C136.02 66.5273 136.406 66.5859 136.875 66.6562C137.344 66.7031 137.836 66.75 138.352 66.7969C138.867 66.8438 139.371 66.8789 139.863 66.9023C140.379 66.9258 140.836 66.9375 141.234 66.9375C142.078 66.9375 142.992 66.9258 143.977 66.9023C144.984 66.8555 145.98 66.7969 146.965 66.7266C147.949 66.6562 148.887 66.5625 149.777 66.4453C150.691 66.3281 151.488 66.1992 152.168 66.0586L153.223 67.1133ZM154.277 60.082C154.84 60.1523 155.461 60.2461 156.141 60.3633C156.82 60.457 157.5 60.5742 158.18 60.7148C158.859 60.832 159.504 60.9492 160.113 61.0664C160.746 61.1836 161.297 61.2773 161.766 61.3477C161.719 61.5586 161.672 61.8164 161.625 62.1211C161.578 62.4258 161.531 62.7422 161.484 63.0703C161.461 63.375 161.438 63.6562 161.414 63.9141C161.391 64.1719 161.379 64.3594 161.379 64.4766V83.9531C161.379 84.6797 161.355 85.5234 161.309 86.4844C161.285 87.4219 161.238 88.3711 161.168 89.332C161.121 90.2695 161.062 91.1602 160.992 92.0039C160.922 92.8711 160.84 93.5625 160.746 94.0781L158.391 94.3945C158.344 94.0195 158.297 93.5156 158.25 92.8828C158.227 92.25 158.191 91.5703 158.145 90.8438C158.121 90.1406 158.098 89.4141 158.074 88.6641C158.074 87.8906 158.074 87.1641 158.074 86.4844V64.4062C158.074 63.6797 157.723 63.0938 157.02 62.6484C156.34 62.1797 155.227 61.7578 153.68 61.3828L154.277 60.082ZM53.7305 111.406C53.7305 110.68 53.3906 110.094 52.7109 109.648C52.0547 109.18 50.9531 108.758 49.4062 108.383L49.9336 107.082C50.5195 107.152 51.1523 107.246 51.832 107.363C52.5352 107.457 53.2266 107.574 53.9062 107.715C54.5859 107.832 55.2305 107.949 55.8398 108.066C56.4492 108.184 56.9766 108.277 57.4219 108.348C57.375 108.559 57.3281 108.816 57.2812 109.121C57.2344 109.426 57.1875 109.742 57.1406 110.07C57.1172 110.375 57.0938 110.656 57.0703 110.914C57.0469 111.172 57.0352 111.359 57.0352 111.477V121.32C58.043 121.227 59.1914 121.109 60.4805 120.969C61.793 120.828 62.9883 120.664 64.0664 120.477L63.6797 123.324C63.2578 123.301 62.7656 123.289 62.2031 123.289C61.6641 123.289 61.0898 123.289 60.4805 123.289C59.8945 123.289 59.2969 123.289 58.6875 123.289C58.0781 123.289 57.5273 123.289 57.0352 123.289V130.953C57.0352 131.68 57.0234 132.523 57 133.484C56.9766 134.422 56.9414 135.371 56.8945 136.332C56.8477 137.27 56.7891 138.16 56.7188 139.004C56.6484 139.871 56.5664 140.562 56.4727 141.078L54.0469 141.395C54 141.02 53.9531 140.516 53.9062 139.883C53.8828 139.25 53.8477 138.57 53.8008 137.844C53.7773 137.141 53.7539 136.414 53.7305 135.664C53.7305 134.891 53.7305 134.164 53.7305 133.484V126.172C52.6758 126.594 51.4922 127.027 50.1797 127.473C48.8906 127.895 47.5547 128.305 46.1719 128.703C44.8125 129.102 43.4648 129.465 42.1289 129.793C40.8164 130.098 39.6211 130.332 38.543 130.496C37.3008 130.684 36.4102 130.543 35.8711 130.074C35.3555 129.582 35.0977 128.773 35.0977 127.648V116.926C35.0977 116.551 35.0508 116.246 34.957 116.012C34.8867 115.754 34.7227 115.531 34.4648 115.344C34.207 115.156 33.8438 114.992 33.375 114.852C32.9297 114.711 32.3203 114.57 31.5469 114.43L32.0039 113.129C33.1758 113.176 34.3711 113.281 35.5898 113.445C36.832 113.586 37.9102 113.738 38.8242 113.902C38.7773 114.113 38.7305 114.371 38.6836 114.676C38.6367 114.98 38.5898 115.285 38.543 115.59C38.5195 115.895 38.4961 116.176 38.4727 116.434C38.4492 116.691 38.4375 116.879 38.4375 116.996V126.91C38.4375 127.309 38.4961 127.59 38.6133 127.754C38.7539 127.895 38.9414 127.953 39.1758 127.93C39.9727 127.883 40.9688 127.754 42.1641 127.543C43.3828 127.332 44.6719 127.074 46.0312 126.77C47.3906 126.465 48.7383 126.125 50.0742 125.75C51.4336 125.375 52.6523 125.012 53.7305 124.66V111.406ZM90.3984 137.035C90.6562 136.988 90.8906 136.965 91.1016 136.965C91.3359 136.941 91.5469 136.918 91.7344 136.895L91.1367 139.461C90.293 139.391 89.2617 139.344 88.043 139.32C86.8477 139.297 85.582 139.273 84.2461 139.25C82.9336 139.25 81.6211 139.262 80.3086 139.285C79.0195 139.309 77.8477 139.344 76.793 139.391C76.7695 139.578 76.7461 139.777 76.7227 139.988C76.6992 140.223 76.6641 140.457 76.6172 140.691L74.3672 141.078C74.1797 140.281 74.0625 139.625 74.0156 139.109C73.9688 138.594 73.9102 138.031 73.8398 137.422L73.418 132.816C73.3945 132.371 73.3477 132.02 73.2773 131.762C73.2305 131.504 73.125 131.293 72.9609 131.129C72.8203 130.965 72.5977 130.824 72.293 130.707C71.9883 130.59 71.5664 130.461 71.0273 130.32L71.625 129.055C73.1484 129.242 74.7422 129.371 76.4062 129.441C78.0703 129.488 79.7461 129.5 81.4336 129.477C83.1445 129.453 84.832 129.395 86.4961 129.301C88.1836 129.207 89.8125 129.102 91.3828 128.984C91.3125 129.594 91.2305 130.238 91.1367 130.918C91.0664 131.598 90.9844 132.289 90.8906 132.992C90.7969 133.695 90.7031 134.398 90.6094 135.102C90.5391 135.781 90.4688 136.426 90.3984 137.035ZM87.6562 131.234C86.9297 131.211 86.0742 131.199 85.0898 131.199C84.1055 131.176 83.1094 131.176 82.1016 131.199C81.0938 131.223 80.1211 131.258 79.1836 131.305C78.2461 131.328 77.4609 131.363 76.8281 131.41L76.8984 136.754V137.562C78.5156 137.539 80.2734 137.492 82.1719 137.422C84.0938 137.375 85.8984 137.305 87.5859 137.211L87.6562 131.234ZM87.6211 110.633C87.0586 110.609 86.2852 110.598 85.3008 110.598C84.3398 110.598 83.332 110.621 82.2773 110.668C81.2461 110.691 80.2383 110.727 79.2539 110.773C78.2695 110.82 77.4727 110.867 76.8633 110.914C76.6289 110.938 76.3008 110.961 75.8789 110.984C75.4805 111.008 75.0352 111.043 74.543 111.09C74.0742 111.137 73.582 111.195 73.0664 111.266C72.5508 111.336 72.082 111.406 71.6602 111.477L70.043 108.629C70.3242 108.676 70.6875 108.734 71.1328 108.805C71.5781 108.875 72.0469 108.934 72.5391 108.98C73.0547 109.027 73.5586 109.074 74.0508 109.121C74.543 109.145 74.9766 109.156 75.3516 109.156C76.2422 109.156 77.3789 109.156 78.7617 109.156C80.1445 109.156 81.5977 109.145 83.1211 109.121C84.6445 109.074 86.1445 109.016 87.6211 108.945C89.1211 108.875 90.4336 108.793 91.5586 108.699C91.4883 109.027 91.418 109.355 91.3477 109.684C91.3008 109.965 91.2422 110.258 91.1719 110.562C91.125 110.867 91.0898 111.125 91.0664 111.336L90.6445 113.797C90.832 113.75 90.9844 113.727 91.1016 113.727C91.2422 113.727 91.3711 113.715 91.4883 113.691L91.2422 115.941C89.9297 115.871 88.4883 115.836 86.918 115.836C85.3711 115.836 83.8594 115.848 82.3828 115.871C80.9062 115.895 79.5703 115.93 78.375 115.977C77.1797 116 76.2891 116.023 75.7031 116.047C75.6797 116.258 75.668 116.457 75.668 116.645C75.668 116.832 75.668 117.02 75.668 117.207V118.754C75.668 119.082 75.7148 119.281 75.8086 119.352C75.9258 119.422 76.1953 119.469 76.6172 119.492C77.1797 119.516 77.8711 119.527 78.6914 119.527C79.5352 119.504 80.4375 119.48 81.3984 119.457C82.3828 119.41 83.3906 119.352 84.4219 119.281C85.4766 119.211 86.4961 119.141 87.4805 119.07C88.4883 119 89.4375 118.918 90.3281 118.824C91.2188 118.73 91.9922 118.637 92.6484 118.543L92.0508 121.355C90.7852 121.285 89.3555 121.25 87.7617 121.25C86.1914 121.227 84.5977 121.227 82.9805 121.25C81.3633 121.273 79.8164 121.309 78.3398 121.355C76.8633 121.402 75.5977 121.449 74.543 121.496C73.7461 121.543 73.1719 121.367 72.8203 120.969C72.4922 120.57 72.3281 120.066 72.3281 119.457V117.734C72.3281 117.312 72.293 116.973 72.2227 116.715C72.1758 116.434 72.0586 116.199 71.8711 116.012C71.707 115.824 71.4609 115.66 71.1328 115.52C70.8047 115.379 70.3594 115.215 69.7969 115.027L70.3242 113.938C71.543 114.078 72.8906 114.172 74.3672 114.219C75.8438 114.266 77.3438 114.289 78.8672 114.289C80.3906 114.266 81.9023 114.23 83.4023 114.184C84.9023 114.137 86.2852 114.078 87.5508 114.008L87.6211 110.633ZM97.6758 126.207C97.207 126.184 96.6562 126.16 96.0234 126.137C95.4141 126.113 94.7461 126.102 94.0195 126.102C93.293 126.078 92.543 126.055 91.7695 126.031C90.9961 126.008 90.2227 125.996 89.4492 125.996C88.793 125.996 87.9609 126.008 86.9531 126.031C85.9453 126.031 84.8438 126.043 83.6484 126.066C82.4766 126.09 81.2695 126.125 80.0273 126.172C78.7852 126.195 77.6016 126.23 76.4766 126.277C75.375 126.324 74.3789 126.371 73.4883 126.418C72.5977 126.441 71.918 126.465 71.4492 126.488C70.582 126.535 69.6328 126.605 68.6016 126.699C67.5703 126.793 66.6445 126.898 65.8242 127.016L64.6289 123.957C65.6836 124.074 66.8086 124.18 68.0039 124.273C69.2227 124.367 70.3594 124.438 71.4141 124.484C71.9766 124.508 72.7266 124.52 73.6641 124.52C74.6016 124.52 75.6211 124.52 76.7227 124.52C77.8477 124.496 79.0078 124.473 80.2031 124.449C81.4219 124.402 82.582 124.367 83.6836 124.344C84.7852 124.297 85.8047 124.262 86.7422 124.238C87.6797 124.191 88.4297 124.156 88.9922 124.133C90.5625 124.062 92.1562 123.957 93.7734 123.816C95.3906 123.676 96.8438 123.512 98.1328 123.324L97.6758 126.207Z" fill="black"/>
</svg>
